<svg width="56" height="74" viewBox="0 0 56 74" fill="none" xmlns="http://www.w3.org/2000/svg">
<path d="M3.52984 72V73H4.52984H53.6818H54.6818V72V57.984V56.984H53.6818H28.5651L42.3468 44.7149L42.3522 44.7101L42.3576 44.7052C43.9038 43.2878 45.3863 41.8698 46.805 40.4511C48.3201 38.936 49.6418 37.3184 50.7676 35.5983C51.9699 33.8595 52.906 31.9859 53.5745 29.9802L53.5746 29.9803L53.5776 29.971C54.2544 27.8729 54.5858 25.5593 54.5858 23.04C54.5858 19.3887 53.8555 16.1514 52.3595 13.3596C50.9483 10.6074 49.0278 8.31551 46.6018 6.49601C44.1934 4.68968 41.4568 3.35706 38.4018 2.4937C35.3671 1.63607 32.2355 1.20801 29.0098 1.20801C25.5797 1.20801 22.3045 1.73569 19.1897 2.79528C16.1342 3.79243 13.4016 5.29059 11 7.29047C8.59721 9.22745 6.59921 11.5951 5.0056 14.3839L5.0011 14.3917L4.99675 14.3997C3.45417 17.2166 2.49244 20.4172 2.09596 23.9856L1.98827 24.9548L2.95446 25.0868L18.4105 27.1988L19.4335 27.3386L19.5405 26.3116C19.8439 23.3987 20.7736 21.1488 22.2661 19.4839C23.7957 17.7849 25.7288 16.936 28.1458 16.936C30.4916 16.936 32.2675 17.6319 33.5827 18.9471L33.5903 18.9546L33.5979 18.962C34.9083 20.2178 35.5938 21.8939 35.5938 24.096C35.5938 25.9683 35.1284 27.6413 34.2062 29.1399C33.2358 30.7168 31.9521 32.2806 30.3434 33.8289L3.85851 57.8189L3.52984 58.1166V58.56V72Z" stroke="#56C5D0" stroke-width="2"/>
</svg>
