<svg width="58" height="76" viewBox="0 0 58 76" fill="none" xmlns="http://www.w3.org/2000/svg">
<path d="M48.7171 37.8379C47.7548 37.2232 46.7391 36.7072 45.6711 36.2897C48.0874 35.2448 50.1489 33.6961 51.8413 31.6449C54.1815 28.8221 55.3343 25.3896 55.3343 21.408C55.3343 18.0037 54.6001 15.0087 53.0899 12.4626C51.6753 9.9074 49.7859 7.7828 47.4276 6.09828C45.0827 4.42335 42.4121 3.19094 39.4267 2.39451C36.5232 1.60291 33.5235 1.20801 30.4303 1.20801C27.5258 1.20801 24.6849 1.60376 21.9102 2.39545C19.1283 3.12521 16.5405 4.25319 14.151 5.77932C11.8098 7.25148 9.77247 9.12308 8.04034 11.3868C6.29002 13.61 4.98858 16.2232 4.1256 19.2105L3.83252 20.225L4.86145 20.4624L19.8375 23.9184L20.8198 24.1451L21.0385 23.1609C21.5068 21.0536 22.4852 19.4368 23.9547 18.25L23.958 18.2472C25.5012 16.9898 27.2921 16.36 29.3743 16.36C31.4095 16.36 33.1828 16.9367 34.7311 18.0836C36.1685 19.1483 36.9183 20.6853 36.9183 22.848C36.9183 24.3771 36.5947 25.5042 36.0383 26.3135L36.0259 26.3315L36.0143 26.35C35.4736 27.2151 34.711 27.9322 33.6974 28.497C32.7208 29.0127 31.583 29.3961 30.2731 29.6362C28.9199 29.8196 27.5006 29.912 26.0143 29.912H21.3103H20.3103V30.912V42.72V43.72H21.3103H25.6303C27.2298 43.72 28.8306 43.8738 30.4335 44.182L30.4518 44.1855L30.4703 44.1884C32.036 44.4293 33.3933 44.8765 34.5564 45.5162L34.582 45.5303L34.6084 45.5429C35.8021 46.1113 36.7139 46.8922 37.3743 47.8827L37.3847 47.8983L37.3956 47.9135C38.08 48.861 38.4543 50.0839 38.4543 51.648C38.4543 53.1167 38.1608 54.2747 37.6324 55.173L37.621 55.1923L37.6105 55.2121C37.1037 56.1694 36.4357 56.9468 35.604 57.5579C34.8207 58.1164 33.8806 58.5481 32.7678 58.8409L32.7678 58.8409L32.7547 58.8445C31.6865 59.1412 30.6245 59.288 29.5663 59.288C26.6873 59.288 24.4027 58.5138 22.632 57.0318C20.7784 55.4154 19.5873 53.5935 19.0078 51.5653L18.7389 50.624L17.7921 50.8729L2.81612 54.8089L1.83337 55.0671L2.10735 56.0456C3.03352 59.3534 4.43103 62.2263 6.31296 64.646L6.31289 64.646L6.32144 64.6567C8.18232 66.9828 10.3471 68.9156 12.8144 70.4493L12.8277 70.4576L12.8413 70.4654C15.3601 71.9237 18.1055 73.0141 21.0729 73.7394L21.0777 73.7406C24.0991 74.4631 27.1852 74.824 30.3343 74.824C33.5629 74.824 36.727 74.3632 39.8237 73.442C42.9972 72.5811 45.8542 71.2538 48.3855 69.4552L48.3926 69.4502L48.3995 69.4451C50.9494 67.5662 52.9969 65.2159 54.5375 62.4037C56.169 59.4791 56.9663 56.0746 56.9663 52.224C56.9663 50.193 56.6277 48.2802 55.9419 46.4948C55.264 44.6665 54.3122 43.0317 53.0849 41.5978C51.8626 40.106 50.4047 38.8523 48.7171 37.8379Z" stroke="#56C5D0" stroke-width="2"/>
</svg>
