<svg width="88" height="88" viewBox="0 0 88 88" fill="none" xmlns="http://www.w3.org/2000/svg">
<path d="M53.1469 14.8037C46.6842 5.17432 21.7818 4.72072 16.3097 20.2653C10.7116 36.1676 9.73177 42.668 7.02036 47.7032C6.26746 49.1013 7.09499 50.9672 8.67707 51.104L9.13935 51.1439C11.0505 51.3092 12.5753 52.8079 12.7734 54.7159L13.5344 62.0448C13.799 64.5926 15.9462 66.5284 18.5077 66.5284H22.9731C25.1822 66.5284 26.9731 68.3192 26.9731 70.5284V80.9855C34.2974 81.1997 49.7863 79.1222 53.1469 69.0985C36.5594 59.2462 8.55447 35.1081 29.235 17.3739C33.2203 14.4825 43.3883 11.591 52.1775 23.1568C56.1628 18.3377 67.0416 10.306 76.4125 17.3739C86.7778 25.1918 82.8752 37.3998 79.967 41.148" stroke="#56C5D0" stroke-width="1.5"/>
<path d="M59.2862 45.0029V36.3286H66.7183V45.0029H75.1198V52.3922H66.7183V61.0665H59.2862V52.3922H50.8848V45.0029H59.2862Z" stroke="#DE6368" stroke-width="1.5"/>
</svg>
