<svg width="88" height="88" viewBox="0 0 88 88" fill="none" xmlns="http://www.w3.org/2000/svg">
<rect x="1.06174" y="-0.0642564" width="15.5319" height="35.4552" rx="2.25" transform="matrix(0.665232 -0.746639 0.75042 0.660964 14.6263 22.6337)" stroke="#56C5D0" stroke-width="1.5"/>
<path d="M46.7256 44.9521L47.3952 45.542C48.6386 46.6371 50.54 46.522 51.6422 45.2849L53.1805 43.5583C54.2827 42.3213 54.1683 40.4306 52.925 39.3355L52.2553 38.7457" stroke="#DE6368" stroke-width="1.5"/>
<path d="M42.9238 43.9136L44.5248 45.3237C44.9392 45.6887 45.5731 45.6504 45.9405 45.238L52.4458 37.9366C52.8132 37.5242 52.775 36.894 52.3606 36.529L50.7596 35.1189" stroke="#56C5D0" stroke-width="1.5"/>
<path d="M23.1478 13.1075L16.9882 7.68224L11.4585 13.8887L17.618 19.3139" stroke="#56C5D0" stroke-width="1.5"/>
<rect x="1.06129" y="-0.0642297" width="13.4625" height="4.39526" rx="1.25" transform="matrix(0.664917 -0.746917 0.750141 0.661278 5.95361 13.8862)" stroke="#DE6368" stroke-width="1.5"/>
<path d="M36.5098 41.5384L47.4745 28.8921" stroke="#56C5D0" stroke-width="1.5"/>
<path d="M19.1837 25.5698C15.1978 29.7765 12.4347 35.1414 11.4595 41.103M68.0819 58.1101C64.2762 66.4738 56.6812 72.7685 47.4742 74.8295M13.9116 58.5461C17.6544 66.4274 24.7871 72.4049 33.4393 74.6191" stroke="#56C5D0" stroke-width="1.5"/>
<path d="M23.7903 29.6123C20.875 32.6382 18.7639 36.4361 17.7983 40.6667M61.0705 58.2402C57.9388 63.2909 52.9424 67.0767 47.0356 68.6489M20.1324 57.2377C23.061 62.5284 27.9758 66.5792 33.8779 68.3972" stroke="#56C5D0" stroke-width="1.5"/>
<path d="M19.0931 49.3886C19.0931 51.3787 17.4693 52.9994 15.4572 52.9994C13.4451 52.9994 11.8213 51.3787 11.8213 49.3886C11.8213 47.3985 13.4451 45.7778 15.4572 45.7778C17.4693 45.7778 19.0931 47.3985 19.0931 49.3886Z" stroke="#DE6368" stroke-width="1.5"/>
<circle cx="40.5" cy="72.5" r="1.75" stroke="#56C5D0" stroke-width="1.5"/>
<path d="M24.3556 49.3882C24.3556 54.2684 20.3755 58.2319 15.4566 58.2319C10.5378 58.2319 6.55762 54.2684 6.55762 49.3882C6.55762 44.508 10.5378 40.5444 15.4566 40.5444C20.3755 40.5444 24.3556 44.508 24.3556 49.3882Z" stroke="#56C5D0" stroke-width="1.5"/>
<path d="M33.75 70.5C33.75 66.7721 36.7721 63.75 40.5 63.75C44.2279 63.75 47.25 66.7721 47.25 70.5V80.25H33.75V70.5Z" stroke="#56C5D0" stroke-width="1.5"/>
<path d="M8.3125 81.041C8.3125 80.3507 8.87214 79.791 9.5625 79.791H71.3511C72.0415 79.791 72.6011 80.3507 72.6011 81.041V84.8904C72.6011 85.5808 72.0415 86.1404 71.3511 86.1404H9.5625C8.87214 86.1404 8.3125 85.5808 8.3125 84.8904V81.041Z" stroke="#56C5D0" stroke-width="1.5"/>
<path d="M43.75 55C43.75 54.3096 44.3096 53.75 45 53.75H78C80.3472 53.75 82.25 55.6528 82.25 58C82.25 58.1381 82.1381 58.25 82 58.25H45C44.3096 58.25 43.75 57.6904 43.75 57V55Z" stroke="#56C5D0" stroke-width="1.5"/>
</svg>
