<svg width="88" height="88" viewBox="0 0 88 88" fill="none" xmlns="http://www.w3.org/2000/svg">
<path d="M18.475 47.7241H16.3364V51.6256H82.6334V47.7241H30.2374M18.475 47.7241V43.1133H30.2374V47.7241M18.475 47.7241H30.2374" stroke="#56C5D0" stroke-width="1.5"/>
<path d="M37.7228 64.7487V71.133C27.1485 71.4877 6 65.8837 6 40.6305C6 15.3773 27.1485 8.35468 37.7228 8V16.1576" stroke="#56C5D0" stroke-width="1.5"/>
<path d="M28.9059 21.0831C29.2671 18.7191 31.3091 16.9082 33.774 16.9082H41.6718C44.1367 16.9082 46.1787 18.7191 46.5399 21.0831H28.9059Z" stroke="#DE6368" stroke-width="1.5"/>
<path d="M45.1142 60.1791C44.753 62.5431 42.711 64.354 40.246 64.354H35.1997C32.7348 64.354 30.6928 62.5431 30.3316 60.1791H45.1142Z" stroke="#DE6368" stroke-width="1.5"/>
<path d="M55.188 51.2705L55.188 75.7434M76.5741 51.2705V75.7434" stroke="#56C5D0" stroke-width="1.5"/>
<path d="M49.75 74.75H82.25V79.25H49.75V74.75Z" stroke="#56C5D0" stroke-width="1.5"/>
</svg>
