<svg width="88" height="88" viewBox="0 0 88 88" fill="none" xmlns="http://www.w3.org/2000/svg">
<path d="M36.21 60.5078C38.8659 61.2242 45.5874 62.2272 51.2261 60.5078" stroke="#DE6368" stroke-width="1.5"/>
<path d="M23.0323 56.8237C21.6022 58.2565 19.0485 62.1046 20.2743 66.0346M20.2743 66.0346C18.1291 66.8533 14.5743 70.0873 17.5162 76.4735L19.0485 75.5524M20.2743 66.0346C22.4194 65.2158 27.1388 65.4205 28.8549 72.7892L27.0162 73.4032" stroke="#DE6368" stroke-width="1.5"/>
<path d="M27.3228 53.7532L34.6776 51.604L39.8872 81.9998L28.5486 63.5781L31.0002 61.1219L27.3228 53.7532Z" stroke="#56C5D0" stroke-width="1.5"/>
<path d="M60.1128 53.7532L52.758 51.604L47.5483 81.9998L58.887 63.5781L56.4354 61.1219L60.1128 53.7532Z" stroke="#56C5D0" stroke-width="1.5"/>
<path d="M63.4839 56.21C64.914 57.7451 67.529 61.9207 66.5484 66.3419" stroke="#DE6368" stroke-width="1.5"/>
<path d="M69.4754 69.4119C69.4754 71.0338 68.1635 72.3462 66.548 72.3462C64.9326 72.3462 63.6206 71.0338 63.6206 69.4119C63.6206 67.79 64.9326 66.4775 66.548 66.4775C68.1635 66.4775 69.4754 67.79 69.4754 69.4119Z" stroke="#56C5D0" stroke-width="1.5"/>
<path d="M37.129 46.0776C37.2467 47.7285 36.7609 49.2451 34.7809 51.6041M59.1935 55.5955C73.2902 56.2096 75.1289 63.8852 75.1289 70.0258V81.9999H12C12 81.2835 12 77.8857 12 70.0258C12 60.2009 17.5161 57.7447 27.629 55.5955C27.8376 55.5512 28.0419 55.5039 28.2419 55.4538M50.3064 46.3847C50.0723 49.5511 51.1096 50.3284 52.758 52.0143" stroke="#56C5D0" stroke-width="1.5"/>
<path d="M31.6129 37.1738C33.0838 46.5074 40.6021 48.2268 44.1774 47.9198C52.758 47.9198 55.5161 40.7558 55.8225 37.1738C56.3333 37.1738 58.887 36.2527 59.1935 32.8754C59.5026 29.4683 57.3548 29.1911 55.8225 29.1911C58.3763 26.1208 61.829 18.0767 55.2096 10.4624C48.5903 2.84809 40.6021 6.6757 37.4354 9.54129C24.1968 11.7519 27.629 23.3575 31 28.884C29.4677 28.884 28.5484 29.1911 28.5484 33.1824C28.5484 36.3755 30.5914 37.1738 31.6129 37.1738Z" stroke="#56C5D0" stroke-width="1.5"/>
<path d="M30.9998 28.8837C30.8976 25.3017 31.8578 17.7079 36.5159 15.9885C37.0266 17.1143 39.1514 19.4272 43.5643 19.6729C49.0804 19.9799 55.8223 19.6729 55.8223 29.1907" stroke="#56C5D0" stroke-width="1.5"/>
</svg>
